<svg viewBox="0 0 2000 1400" xmlns="http://www.w3.org/2000/svg">
    <mask id="b" x="0" y="0" width="2000" height="1400">
        <path fill="url(#a)" d="M0 0h2000v1400H0z" />
    </mask>
    <path fill="#18181b" d="M0 0h2000v1400H0z" />
    <g style="transform-origin:center center" stroke="#1f2937" stroke-width="2" mask="url(#b)">
        <path fill="none"
            d="M0 0h100v100H0zM100 0h100v100H100zM200 0h100v100H200zM300 0h100v100H300zM400 0h100v100H400zM500 0h100v100H500zM600 0h100v100H600z" />
        <path fill="#1f293721" d="M700 0h100v100H700z" />
        <path fill="#1f293708" d="M800 0h100v100H800z" />
        <path fill="none" d="M900 0h100v100H900z" />
        <path fill="#1f293789" d="M1000 0h100v100h-100z" />
        <path fill="#1f29375f" d="M1100 0h100v100h-100z" />
        <path fill="#1f29376e" d="M1200 0h100v100h-100z" />
        <path fill="#1f29374c" d="M1300 0h100v100h-100z" />
        <path fill="none" d="M1400 0h100v100h-100zM1500 0h100v100h-100z" />
        <path fill="#1f2937d4" d="M1600 0h100v100h-100z" />
        <path fill="none"
            d="M1700 0h100v100h-100zM1800 0h100v100h-100zM1900 0h100v100h-100zM0 100h100v100H0zM100 100h100v100H100zM200 100h100v100H200z" />
        <path fill="#1f293793" d="M300 100h100v100H300z" />
        <path fill="none" d="M400 100h100v100H400z" />
        <path fill="#1f2937bd" d="M500 100h100v100H500z" />
        <path fill="none" d="M600 100h100v100H600zM700 100h100v100H700z" />
        <path fill="#1f293768" d="M800 100h100v100H800z" />
        <path fill="#1f2937cd" d="M900 100h100v100H900z" />
        <path fill="none"
            d="M1000 100h100v100h-100zM1100 100h100v100h-100zM1200 100h100v100h-100zM1300 100h100v100h-100z" />
        <path fill="#1f2937d0" d="M1400 100h100v100h-100z" />
        <path fill="none"
            d="M1500 100h100v100h-100zM1600 100h100v100h-100zM1700 100h100v100h-100zM1800 100h100v100h-100zM1900 100h100v100h-100zM0 200h100v100H0zM100 200h100v100H100z" />
        <path fill="#1f2937ac" d="M200 200h100v100H200z" />
        <path fill="none"
            d="M300 200h100v100H300zM400 200h100v100H400zM500 200h100v100H500zM600 200h100v100H600zM700 200h100v100H700z" />
        <path fill="#1f293716" d="M800 200h100v100H800z" />
        <path fill="none" d="M900 200h100v100H900z" />
        <path fill="#1f293797" d="M1000 200h100v100h-100z" />
        <path fill="none"
            d="M1100 200h100v100h-100zM1200 200h100v100h-100zM1300 200h100v100h-100zM1400 200h100v100h-100zM1500 200h100v100h-100zM1600 200h100v100h-100z" />
        <path fill="#1f293704" d="M1700 200h100v100h-100z" />
        <path fill="none" d="M1800 200h100v100h-100z" />
        <path fill="#1f2937ee" d="M1900 200h100v100h-100z" />
        <path fill="none" d="M0 300h100v100H0z" />
        <path fill="#1f293702" d="M100 300h100v100H100z" />
        <path fill="none"
            d="M200 300h100v100H200zM300 300h100v100H300zM400 300h100v100H400zM500 300h100v100H500zM600 300h100v100H600zM700 300h100v100H700z" />
        <path fill="#1f293732" d="M800 300h100v100H800z" />
        <path fill="none"
            d="M900 300h100v100H900zM1000 300h100v100h-100zM1100 300h100v100h-100zM1200 300h100v100h-100z" />
        <path fill="#1f2937bd" d="M1300 300h100v100h-100z" />
        <path fill="none" d="M1400 300h100v100h-100zM1500 300h100v100h-100zM1600 300h100v100h-100z" />
        <path fill="#1f293754" d="M1700 300h100v100h-100z" />
        <path fill="#1f2937c7" d="M1800 300h100v100h-100z" />
        <path fill="#1f293768" d="M1900 300h100v100h-100z" />
        <path fill="none" d="M0 400h100v100H0zM100 400h100v100H100zM200 400h100v100H200z" />
        <path fill="#1f293774" d="M300 400h100v100H300z" />
        <path fill="none" d="M400 400h100v100H400zM500 400h100v100H500z" />
        <path fill="#1f2937a8" d="M600 400h100v100H600z" />
        <path fill="#1f293747" d="M700 400h100v100H700z" />
        <path fill="none" d="M800 400h100v100H800zM900 400h100v100H900zM1000 400h100v100h-100z" />
        <path fill="#1f2937f3" d="M1100 400h100v100h-100z" />
        <path fill="none" d="M1200 400h100v100h-100zM1300 400h100v100h-100zM1400 400h100v100h-100z" />
        <path fill="#1f2937a7" d="M1500 400h100v100h-100z" />
        <path fill="none" d="M1600 400h100v100h-100zM1700 400h100v100h-100z" />
        <path fill="#1f293751" d="M1800 400h100v100h-100z" />
        <path fill="none"
            d="M1900 400h100v100h-100zM0 500h100v100H0zM100 500h100v100H100zM200 500h100v100H200zM300 500h100v100H300zM400 500h100v100H400z" />
        <path fill="#1f2937b5" d="M500 500h100v100H500z" />
        <path fill="#1f29378d" d="M600 500h100v100H600z" />
        <path fill="none" d="M700 500h100v100H700z" />
        <path fill="#1f29375c" d="M800 500h100v100H800z" />
        <path fill="none" d="M900 500h100v100H900zM1000 500h100v100h-100z" />
        <path fill="#1f293728" d="M1100 500h100v100h-100z" />
        <path fill="none" d="M1200 500h100v100h-100zM1300 500h100v100h-100z" />
        <path fill="#1f2937a7" d="M1400 500h100v100h-100z" />
        <path fill="none" d="M1500 500h100v100h-100z" />
        <path fill="#1f293720" d="M1600 500h100v100h-100z" />
        <path fill="none" d="M1700 500h100v100h-100z" />
        <path fill="#1f2937f1" d="M1800 500h100v100h-100z" />
        <path fill="#1f29379c" d="M1900 500h100v100h-100z" />
        <path fill="#1f2937b3" d="M0 600h100v100H0z" />
        <path fill="none" d="M100 600h100v100H100z" />
        <path fill="#1f2937bc" d="M200 600h100v100H200z" />
        <path fill="#1f293794" d="M300 600h100v100H300z" />
        <path fill="none" d="M400 600h100v100H400z" />
        <path fill="#1f2937ba" d="M500 600h100v100H500z" />
        <path fill="none" d="M600 600h100v100H600z" />
        <path fill="#1f29372e" d="M700 600h100v100H700z" />
        <path fill="#1f293779" d="M800 600h100v100H800z" />
        <path fill="none"
            d="M900 600h100v100H900zM1000 600h100v100h-100zM1100 600h100v100h-100zM1200 600h100v100h-100zM1300 600h100v100h-100z" />
        <path fill="#1f293789" d="M1400 600h100v100h-100z" />
        <path fill="none" d="M1500 600h100v100h-100z" />
        <path fill="#1f293762" d="M1600 600h100v100h-100z" />
        <path fill="none" d="M1700 600h100v100h-100zM1800 600h100v100h-100z" />
        <path fill="#1f293705" d="M1900 600h100v100h-100z" />
        <path fill="none" d="M0 700h100v100H0z" />
        <path fill="#1f29375c" d="M100 700h100v100H100z" />
        <path fill="none" d="M200 700h100v100H200z" />
        <path fill="#1f29379b" d="M300 700h100v100H300z" />
        <path fill="#1f29373a" d="M400 700h100v100H400z" />
        <path fill="none" d="M500 700h100v100H500z" />
        <path fill="#1f29375b" d="M600 700h100v100H600z" />
        <path fill="#1f2937ea" d="M700 700h100v100H700z" />
        <path fill="none"
            d="M800 700h100v100H800zM900 700h100v100H900zM1000 700h100v100h-100zM1100 700h100v100h-100z" />
        <path fill="#1f293726" d="M1200 700h100v100h-100z" />
        <path fill="none" d="M1300 700h100v100h-100z" />
        <path fill="#1f2937be" d="M1400 700h100v100h-100z" />
        <path fill="none" d="M1500 700h100v100h-100zM1600 700h100v100h-100z" />
        <path fill="#1f293767" d="M1700 700h100v100h-100z" />
        <path fill="none"
            d="M1800 700h100v100h-100zM1900 700h100v100h-100zM0 800h100v100H0zM100 800h100v100H100z" />
        <path fill="#1f29377f" d="M200 800h100v100H200z" />
        <path fill="#1f293706" d="M300 800h100v100H300z" />
        <path fill="none" d="M400 800h100v100H400z" />
        <path fill="#1f2937a2" d="M500 800h100v100H500z" />
        <path fill="none" d="M600 800h100v100H600z" />
        <path fill="#1f2937ff" d="M700 800h100v100H700z" />
        <path fill="#1f293777" d="M800 800h100v100H800z" />
        <path fill="#1f2937fd" d="M900 800h100v100H900z" />
        <path fill="none" d="M1000 800h100v100h-100z" />
        <path fill="#1f2937d9" d="M1100 800h100v100h-100z" />
        <path fill="none" d="M1200 800h100v100h-100zM1300 800h100v100h-100z" />
        <path fill="#1f293760" d="M1400 800h100v100h-100z" />
        <path fill="#1f29375a" d="M1500 800h100v100h-100z" />
        <path fill="none" d="M1600 800h100v100h-100z" />
        <path fill="#1f293756" d="M1700 800h100v100h-100z" />
        <path fill="none" d="M1800 800h100v100h-100z" />
        <path fill="#1f29376a" d="M1900 800h100v100h-100z" />
        <path fill="#1f293775" d="M0 900h100v100H0z" />
        <path fill="#1f2937b4" d="M100 900h100v100H100z" />
        <path fill="none"
            d="M200 900h100v100H200zM300 900h100v100H300zM400 900h100v100H400zM500 900h100v100H500z" />
        <path fill="#1f29374e" d="M600 900h100v100H600z" />
        <path fill="none" d="M700 900h100v100H700zM800 900h100v100H800zM900 900h100v100H900z" />
        <path fill="#1f293736" d="M1000 900h100v100h-100z" />
        <path fill="#1f2937b7" d="M1100 900h100v100h-100z" />
        <path fill="none" d="M1200 900h100v100h-100zM1300 900h100v100h-100z" />
        <path fill="#1f293716" d="M1400 900h100v100h-100z" />
        <path fill="none" d="M1500 900h100v100h-100zM1600 900h100v100h-100z" />
        <path fill="#1f293703" d="M1700 900h100v100h-100z" />
        <path fill="#1f2937d3" d="M1800 900h100v100h-100z" />
        <path fill="none"
            d="M1900 900h100v100h-100zM0 1000h100v100H0zM100 1000h100v100H100zM200 1000h100v100H200zM300 1000h100v100H300zM400 1000h100v100H400zM500 1000h100v100H500z" />
        <path fill="#1f29373d" d="M600 1000h100v100H600z" />
        <path fill="#1f293750" d="M700 1000h100v100H700z" />
        <path fill="none" d="M800 1000h100v100H800zM900 1000h100v100H900z" />
        <path fill="#1f293743" d="M1000 1000h100v100h-100z" />
        <path fill="#1f2937f2" d="M1100 1000h100v100h-100z" />
        <path fill="none" d="M1200 1000h100v100h-100zM1300 1000h100v100h-100z" />
        <path fill="#1f2937c1" d="M1400 1000h100v100h-100z" />
        <path fill="#1f2937ce" d="M1500 1000h100v100h-100z" />
        <path fill="none" d="M1600 1000h100v100h-100z" />
        <path fill="#1f29372c" d="M1700 1000h100v100h-100z" />
        <path fill="none"
            d="M1800 1000h100v100h-100zM1900 1000h100v100h-100zM0 1100h100v100H0zM100 1100h100v100H100z" />
        <path fill="#1f29375a" d="M200 1100h100v100H200z" />
        <path fill="none"
            d="M300 1100h100v100H300zM400 1100h100v100H400zM500 1100h100v100H500zM600 1100h100v100H600zM700 1100h100v100H700zM800 1100h100v100H800zM900 1100h100v100H900z" />
        <path fill="#1f293784" d="M1000 1100h100v100h-100z" />
        <path fill="none" d="M1100 1100h100v100h-100z" />
        <path fill="#1f2937a6" d="M1200 1100h100v100h-100z" />
        <path fill="none"
            d="M1300 1100h100v100h-100zM1400 1100h100v100h-100zM1500 1100h100v100h-100zM1600 1100h100v100h-100z" />
        <path fill="#1f29372f" d="M1700 1100h100v100h-100z" />
        <path fill="none" d="M1800 1100h100v100h-100z" />
        <path fill="#1f2937a7" d="M1900 1100h100v100h-100z" />
        <path fill="none" d="M0 1200h100v100H0z" />
        <path fill="#1f2937ad" d="M100 1200h100v100H100z" />
        <path fill="none"
            d="M200 1200h100v100H200zM300 1200h100v100H300zM400 1200h100v100H400zM500 1200h100v100H500zM600 1200h100v100H600z" />
        <path fill="#1f293763" d="M700 1200h100v100H700z" />
        <path fill="#1f2937ba" d="M800 1200h100v100H800z" />
        <path fill="#1f2937eb" d="M900 1200h100v100H900z" />
        <path fill="#1f2937a8" d="M1000 1200h100v100h-100z" />
        <path fill="none"
            d="M1100 1200h100v100h-100zM1200 1200h100v100h-100zM1300 1200h100v100h-100z" />
        <path fill="#1f29378e" d="M1400 1200h100v100h-100z" />
        <path fill="#1f293763" d="M1500 1200h100v100h-100z" />
        <path fill="#1f293723" d="M1600 1200h100v100h-100z" />
        <path fill="none" d="M1700 1200h100v100h-100zM1800 1200h100v100h-100z" />
        <path fill="#1f2937ec" d="M1900 1200h100v100h-100z" />
        <path fill="#1f29376d" d="M0 1300h100v100H0z" />
        <path fill="none" d="M100 1300h100v100H100zM200 1300h100v100H200zM300 1300h100v100H300z" />
        <path fill="#1f293761" d="M400 1300h100v100H400z" />
        <path fill="none" d="M500 1300h100v100H500zM600 1300h100v100H600z" />
        <path fill="#1f2937ba" d="M700 1300h100v100H700z" />
        <path fill="none" d="M800 1300h100v100H800zM900 1300h100v100H900zM1000 1300h100v100h-100z" />
        <path fill="#1f293705" d="M1100 1300h100v100h-100z" />
        <path fill="#1f2937a0" d="M1200 1300h100v100h-100z" />
        <path fill="none"
            d="M1300 1300h100v100h-100zM1400 1300h100v100h-100zM1500 1300h100v100h-100zM1600 1300h100v100h-100z" />
        <path fill="#1f2937a2" d="M1700 1300h100v100h-100z" />
        <path fill="#1f2937ee" d="M1800 1300h100v100h-100z" />
        <path fill="none" d="M1900 1300h100v100h-100z" />
    </g>
    <defs>
        <radialGradient id="a">
            <stop offset="0" stop-color="#fff" />
            <stop offset="1" stop-color="#fff" stop-opacity="0" />
        </radialGradient>
    </defs>
</svg>
